<svg width="24" height="24" viewBox="0 0 24 24" fill="none" xmlns="http://www.w3.org/2000/svg">
<path d="M4.5 21.385V20.385H19.5V21.385H4.5ZM4.5 3.61499V2.61499H19.5V3.61499H4.5ZM12 14C12.692 14 13.282 13.7567 13.77 13.27C14.2567 12.782 14.5 12.192 14.5 11.5C14.5 10.808 14.2567 10.218 13.77 9.72999C13.2813 9.24332 12.6913 8.99999 12 8.99999C11.3087 8.99999 10.7187 9.24332 10.23 9.72999C9.74333 10.218 9.5 10.808 9.5 11.5C9.5 12.192 9.74333 12.782 10.23 13.27C10.718 13.7567 11.308 14 12 14ZM4.615 19C4.155 19 3.771 18.846 3.463 18.538C3.15433 18.2293 3 17.845 3 17.385V6.61499C3 6.15499 3.15433 5.77099 3.463 5.46299C3.771 5.15432 4.155 4.99999 4.615 4.99999H19.385C19.845 4.99999 20.229 5.15432 20.537 5.46299C20.8457 5.77099 21 6.15499 21 6.61499V17.385C21 17.845 20.846 18.229 20.538 18.537C20.2293 18.8457 19.845 19 19.385 19H4.615ZM7.058 18C7.808 17.3233 8.59467 16.8207 9.418 16.492C10.24 16.164 11.1007 16 12 16C12.8987 16 13.7597 16.164 14.583 16.492C15.4057 16.8207 16.1923 17.3233 16.943 18H19.385C19.5383 18 19.6793 17.936 19.808 17.808C19.936 17.6793 20 17.5383 20 17.385V6.61499C20 6.46166 19.936 6.32066 19.808 6.19199C19.6793 6.06399 19.5383 5.99999 19.385 5.99999H4.615C4.46167 5.99999 4.32067 6.06399 4.192 6.19199C4.064 6.32066 4 6.46166 4 6.61499V17.385C4 17.5383 4.064 17.6793 4.192 17.808C4.32067 17.936 4.46167 18 4.615 18H7.058ZM8.7 18H15.3C14.8167 17.6667 14.296 17.4167 13.738 17.25C13.18 17.0833 12.6007 17 12 17C11.4 17 10.821 17.0833 10.263 17.25C9.705 17.4167 9.184 17.6667 8.7 18ZM12 13C11.5887 13 11.2357 12.853 10.941 12.559C10.647 12.2643 10.5 11.9113 10.5 11.5C10.5 11.0887 10.647 10.7357 10.941 10.441C11.2357 10.147 11.5887 9.99999 12 9.99999C12.4113 9.99999 12.7643 10.147 13.059 10.441C13.353 10.7357 13.5 11.0887 13.5 11.5C13.5 11.9113 13.353 12.2643 13.059 12.559C12.7643 12.853 12.4113 13 12 13Z" fill="#EFF5FF"/>
</svg>
