<svg width="29" height="28" viewBox="0 0 29 28" fill="none" xmlns="http://www.w3.org/2000/svg">
<g opacity="0.8">
<path d="M22.0007 7.70137L15.4672 2.80119C15.0633 2.49826 14.5721 2.33447 14.0672 2.33447C13.5623 2.33447 13.0708 2.49826 12.6669 2.80119L6.13341 7.70137C5.6987 8.0274 5.34585 8.45015 5.10284 8.93617C4.85983 9.42219 4.7334 9.95815 4.7334 10.5015V23.3355C4.7334 23.9543 4.97913 24.5478 5.41674 24.9854C5.85435 25.423 6.44798 25.6689 7.06684 25.6689H21.0675C21.6864 25.6689 22.2797 25.423 22.7173 24.9854C23.1549 24.5478 23.401 23.9543 23.401 23.3355V10.5015C23.401 9.95815 23.2742 9.42219 23.0312 8.93617C22.7882 8.45015 22.4354 8.0274 22.0007 7.70137V7.70137Z" stroke="white" stroke-width="2.31778" stroke-miterlimit="10"/>
<path d="M14.0674 15.1687V22.169" stroke="white" stroke-width="2.31778" stroke-miterlimit="10"/>
</g>
</svg>
