<svg width="30" height="30" viewBox="0 0 30 30" fill="none" xmlns="http://www.w3.org/2000/svg">
<path d="M13.7513 12.5H16.2513V18.75H13.7513V12.5ZM13.75 20H16.25V22.5H13.75V20Z" fill="#F0EB67"/>
<path d="M17.2102 5.25011C16.7752 4.43136 15.9277 3.92261 15.0002 3.92261C14.0727 3.92261 13.2252 4.43136 12.7902 5.25136L3.61768 22.5801C3.41414 22.9606 3.31332 23.3877 3.32515 23.8191C3.33699 24.2505 3.46108 24.6713 3.68518 25.0401C3.90605 25.4106 4.21973 25.717 4.59524 25.9292C4.97075 26.1414 5.39511 26.252 5.82643 26.2501H24.1739C25.0589 26.2501 25.8602 25.7976 26.3164 25.0401C26.5402 24.6712 26.6641 24.2504 26.6759 23.819C26.6877 23.3877 26.5871 22.9608 26.3839 22.5801L17.2102 5.25011ZM5.82643 23.7501L15.0002 6.42136L24.1802 23.7501H5.82643Z" fill="url(#paint0_linear_276_7578)"/>
<defs>
<linearGradient id="paint0_linear_276_7578" x1="15.0005" y1="3.92261" x2="15.0005" y2="26.2501" gradientUnits="userSpaceOnUse">
<stop stop-color="#FFFCAB"/>
<stop offset="1" stop-color="#D4D904"/>
</linearGradient>
</defs>
</svg>
