<svg width="24" height="24" viewBox="0 0 24 24" fill="none" xmlns="http://www.w3.org/2000/svg">
<path fill-rule="evenodd" clip-rule="evenodd" d="M11.9997 21.1886L12.7209 20.376C13.5392 19.4389 14.2752 18.5498 14.93 17.704L15.4706 16.9909C17.7277 13.9497 18.8569 11.536 18.8569 9.75204C18.8569 5.94403 15.7871 2.85718 11.9997 2.85718C8.21229 2.85718 5.14258 5.94403 5.14258 9.75204C5.14258 11.536 6.27172 13.9497 8.52886 16.9909L9.06944 17.704C10.0037 18.9011 10.9811 20.0626 11.9997 21.1886Z" stroke="#EFF5FF" stroke-width="1.5" stroke-linecap="round" stroke-linejoin="round"/>
<path d="M11.9997 12.5715C13.5777 12.5715 14.8569 11.2923 14.8569 9.71432C14.8569 8.13636 13.5777 6.85718 11.9997 6.85718C10.4218 6.85718 9.14258 8.13636 9.14258 9.71432C9.14258 11.2923 10.4218 12.5715 11.9997 12.5715Z" stroke="#EFF5FF" stroke-width="1.5" stroke-linecap="round" stroke-linejoin="round"/>
</svg>
