<svg width="13" height="14" viewBox="0 0 13 14" fill="none" xmlns="http://www.w3.org/2000/svg">
<path d="M12.1016 9.40607L12.5948 9.60896C12.6794 9.40327 12.6275 9.16667 12.4645 9.0153C12.3016 8.86394 12.0618 8.82959 11.8629 8.92912L12.1016 9.40607ZM5.32391 1.13098L5.7543 1.44596C5.88527 1.267 5.89183 1.02566 5.77078 0.839847C5.64972 0.654034 5.42631 0.562525 5.20968 0.610025L5.32391 1.13098ZM9.69828 9.43926C6.99185 9.43926 4.78297 7.20652 4.78297 4.43379L3.71631 4.43379C3.71631 7.77905 6.38631 10.5059 9.69828 10.5059L9.69828 9.43926ZM11.8629 8.92912C11.2102 9.25575 10.4759 9.43926 9.69828 9.43926L9.69828 10.5059C10.6458 10.5059 11.5431 10.2819 12.3402 9.88302L11.8629 8.92912ZM11.6083 9.20318C10.7848 11.2052 8.84393 12.6034 6.58918 12.6034L6.58918 13.6701C9.29924 13.6701 11.6157 11.9892 12.5948 9.60896L11.6083 9.20318ZM6.58918 12.6034C3.59353 12.6034 1.1502 10.1323 1.1502 7.06561L0.0835302 7.06561C0.08353 10.7049 2.98799 13.6701 6.58918 13.6701L6.58918 12.6034ZM1.1502 7.06561C1.1502 4.40392 2.9927 2.18816 5.43815 1.65194L5.20968 0.610025C2.27373 1.2538 0.0835303 3.90394 0.0835302 7.06561L1.1502 7.06561ZM4.78297 4.43379C4.78297 3.31244 5.14443 2.27928 5.7543 1.44596L4.89353 0.816002C4.1536 1.82704 3.71631 3.07969 3.71631 4.43379L4.78297 4.43379Z" fill="#EDF2F4"/>
</svg>
