<svg width="24" height="24" viewBox="0 0 24 24" fill="none" xmlns="http://www.w3.org/2000/svg">
<path d="M16.5346 9.75497L13.9996 11.6L14.9996 14.565C15.0161 14.6214 15.0148 14.6817 14.9957 14.7374C14.9767 14.793 14.9409 14.8415 14.8932 14.876C14.8456 14.9105 14.7884 14.9294 14.7295 14.9301C14.6707 14.9308 14.613 14.9133 14.5646 14.88L11.9996 13.075L9.45955 14.925C9.42889 14.9466 9.3942 14.9618 9.35754 14.9697C9.32089 14.9776 9.28302 14.9781 9.24618 14.9711C9.20934 14.9641 9.17428 14.9498 9.14308 14.929C9.11188 14.9082 9.08517 14.8813 9.06455 14.85C9.04204 14.8147 9.0269 14.7753 9.02002 14.7341C9.01315 14.6928 9.01469 14.6506 9.02455 14.61L9.99955 11.65L7.46455 9.79997C7.4166 9.76628 7.38066 9.71815 7.36199 9.66259C7.34332 9.60704 7.34288 9.54697 7.36074 9.49115C7.3786 9.43533 7.41383 9.38668 7.46129 9.35229C7.50874 9.3179 7.56595 9.29957 7.62455 9.29997H10.7596L11.7346 6.33497C11.745 6.27512 11.7749 6.22041 11.8197 6.17938C11.8645 6.13834 11.9217 6.1133 11.9822 6.10816C12.0427 6.10302 12.1033 6.11807 12.1544 6.15097C12.2054 6.18386 12.2442 6.23274 12.2646 6.28997L13.2396 9.24997H16.3746C16.4113 9.25062 16.4476 9.25851 16.4813 9.27319C16.5151 9.28786 16.5456 9.30904 16.5711 9.33551C16.5966 9.36197 16.6167 9.39321 16.6302 9.42744C16.6436 9.46166 16.6502 9.4982 16.6496 9.53497C16.6498 9.57825 16.6395 9.62092 16.6194 9.65927C16.5994 9.69762 16.5702 9.73048 16.5346 9.75497Z" stroke="#B7B5F8" stroke-linecap="round" stroke-linejoin="round"/>
<path d="M12 2.25C12 2.25 6.37 3.25 4.375 3.25V13.25C4.37812 13.9524 4.51383 14.6479 4.775 15.3C5.02358 15.9449 5.36009 16.5523 5.775 17.105C6.19378 17.6599 6.66421 18.1739 7.18 18.64C7.65625 19.0813 8.15704 19.4952 8.68 19.88C9.14568 20.2142 9.62796 20.5246 10.125 20.81C10.625 21.105 10.98 21.31 11.19 21.405L11.69 21.65C11.7868 21.6962 11.8927 21.7202 12 21.7202C12.1073 21.7202 12.2132 21.6962 12.31 21.65L12.81 21.405C13.02 21.305 13.375 21.105 13.875 20.81C14.372 20.5246 14.8543 20.2142 15.32 19.88C15.843 19.4952 16.3438 19.0813 16.82 18.64C17.3358 18.1739 17.8062 17.6599 18.225 17.105C18.6399 16.5523 18.9764 15.9449 19.225 15.3C19.4862 14.6479 19.6219 13.9524 19.625 13.25V3.25C17.63 3.265 12 2.25 12 2.25Z" stroke="#B7B5F8" stroke-linecap="round" stroke-linejoin="round"/>
</svg>
