<svg width="24" height="24" viewBox="0 0 24 24" fill="none" xmlns="http://www.w3.org/2000/svg">
<path opacity="0.8" d="M22.4279 15.7895L20.0819 14.1474C20.4686 12.7832 20.4944 11.3053 20.0819 9.82737L22.4279 8.21053L20.5589 5.05263L17.9422 6.21474C16.9239 5.20421 15.6349 4.42105 14.1268 4.05474L13.869 1.26316H10.131L9.87317 4.05474C8.36506 4.42105 7.07608 5.20421 6.05778 6.21474L3.44114 5.05263L1.57211 8.21053L3.91806 9.82737C3.50559 11.3053 3.53137 12.7832 3.91806 14.1474L1.57211 15.7895L3.44114 18.9474L6.05778 17.7726C7.07608 18.7705 8.36506 19.5284 9.87317 19.92L10.131 22.7368H13.869L14.1268 19.92C15.6349 19.5284 16.9239 18.7705 17.9422 17.7726L20.5589 18.9474L22.4279 15.7895ZM14.578 0C14.926 0 15.2225 0.252632 15.2225 0.581053L15.4545 3.15789C16.4341 3.51158 17.3106 4.02947 18.0969 4.64842L20.4815 3.54947C20.778 3.39789 21.1518 3.49895 21.3323 3.78947L23.9102 8.21053C24.0907 8.47579 23.9876 8.8421 23.704 9.03158L21.5514 10.5095C21.7189 11.52 21.7061 12.5179 21.5514 13.4905L23.704 14.9684C23.9876 15.1579 24.0907 15.5242 23.9102 15.7895L21.3323 20.2105C21.1518 20.4758 20.778 20.5768 20.4815 20.4253L18.0969 19.3389C17.3106 19.9579 16.4341 20.4632 15.4545 20.8421L15.2225 23.3684C15.2225 23.7347 14.926 24 14.578 24H9.42203C9.2511 24 9.08717 23.9335 8.9663 23.815C8.84544 23.6966 8.77754 23.5359 8.77754 23.3684L8.54552 20.8421C7.56589 20.4632 6.68938 19.9579 5.9031 19.3389L3.51848 20.4253C3.22201 20.5768 2.8482 20.4758 2.66775 20.2105L0.0897763 15.7895C-0.0906817 15.5242 0.0124372 15.1579 0.296014 14.9684L2.44862 13.4905C2.29394 12.5179 2.28105 11.52 2.44862 10.5095L0.296014 9.03158C0.0124372 8.8421 -0.0906817 8.47579 0.0897763 8.21053L2.66775 3.78947C2.8482 3.49895 3.22201 3.39789 3.51848 3.54947L5.9031 4.64842C6.68938 4.02947 7.56589 3.51158 8.54552 3.15789L8.77754 0.581053C8.77754 0.252632 9.074 0 9.42203 0H14.578ZM12 7.57895C13.1965 7.57895 14.344 8.04473 15.1901 8.87384C16.0361 9.70295 16.5114 10.8275 16.5114 12C16.5114 13.1725 16.0361 14.297 15.1901 15.1262C14.344 15.9553 13.1965 16.4211 12 16.4211C10.8035 16.4211 9.65599 15.9553 8.80993 15.1262C7.96386 14.297 7.48855 13.1725 7.48855 12C7.48855 10.8275 7.96386 9.70295 8.80993 8.87384C9.65599 8.04473 10.8035 7.57895 12 7.57895ZM12 8.8421C11.1453 8.8421 10.3257 9.17481 9.72137 9.76703C9.11705 10.3593 8.77754 11.1625 8.77754 12C8.77754 12.8375 9.11705 13.6407 9.72137 14.233C10.3257 14.8252 11.1453 15.1579 12 15.1579C12.8547 15.1579 13.6743 14.8252 14.2786 14.233C14.883 13.6407 15.2225 12.8375 15.2225 12C15.2225 11.1625 14.883 10.3593 14.2786 9.76703C13.6743 9.17481 12.8547 8.8421 12 8.8421Z" fill="white"/>
</svg>
