<svg width="24" height="24" viewBox="0 0 24 24" fill="none" xmlns="http://www.w3.org/2000/svg">
<path d="M4.33 6.24994V5.14494C4.32934 5.01737 4.35397 4.89094 4.40249 4.77295C4.451 4.65497 4.52242 4.54777 4.61263 4.45757C4.70283 4.36736 4.81003 4.29594 4.92801 4.24743C5.046 4.19891 5.17243 4.17428 5.3 4.17494H9.725C10.725 4.17494 12.505 6.01994 13.385 6.06494H20.935C21.1512 6.06494 21.3584 6.15081 21.5113 6.30365C21.6641 6.45649 21.75 6.66379 21.75 6.87994V16.7749C21.7501 16.9049 21.724 17.0335 21.6734 17.1532C21.6228 17.2729 21.5486 17.3812 21.4554 17.4717C21.3621 17.5621 21.2516 17.6329 21.1304 17.6799C21.0093 17.7268 20.8799 17.749 20.75 17.7449H19.67V8.95994C19.6707 8.85315 19.6502 8.74728 19.6098 8.64843C19.5694 8.54958 19.5098 8.45969 19.4345 8.38395C19.3593 8.3082 19.2697 8.24809 19.1711 8.20707C19.0725 8.16605 18.9668 8.14494 18.86 8.14494H11.305C10.43 8.09494 8.655 6.24994 7.645 6.24994H3.225C3.0972 6.24928 2.97052 6.27388 2.85226 6.32234C2.734 6.37079 2.62648 6.44213 2.53587 6.53227C2.44527 6.62241 2.37337 6.72957 2.32431 6.84758C2.27525 6.96559 2.25 7.09214 2.25 7.21994V18.8549C2.25 19.1122 2.3522 19.3589 2.53411 19.5408C2.71602 19.7227 2.96274 19.8249 3.22 19.8249H18.72C18.8476 19.8256 18.974 19.801 19.092 19.7525C19.21 19.7039 19.3172 19.6325 19.4074 19.5423C19.4976 19.4521 19.569 19.3449 19.6175 19.2269C19.666 19.1089 19.6907 18.9825 19.69 18.8549V10.4999" stroke="#EFF5FF" stroke-linecap="round" stroke-linejoin="round"/>
</svg>
