<svg width="14" height="14" viewBox="0 0 14 14" fill="none" xmlns="http://www.w3.org/2000/svg">
<path d="M3.37364 6.67845C3.35877 8.05261 3.5876 8.82748 4.03911 9.27899C4.492 9.73188 5.27611 9.96713 6.66706 9.96713C8.05785 9.96713 8.83367 9.73192 9.28266 9.27999C9.73232 8.8274 9.96046 8.05083 9.96046 6.67374C9.96046 5.29664 9.73232 4.52008 9.28266 4.06748C8.83367 3.61556 8.05785 3.38034 6.66706 3.38034C5.27645 3.38034 4.50892 3.61551 4.06382 4.06647C3.61601 4.52017 3.38858 5.2984 3.37364 6.67845Z" stroke="#8D99AE" stroke-width="0.870915" stroke-linecap="round" stroke-linejoin="round"/>
<path d="M6.66797 0.614258V1.54647" stroke="#8D99AE" stroke-width="0.870915" stroke-linecap="round"/>
<path d="M6.66797 11.8008V12.733" stroke="#8D99AE" stroke-width="0.870915" stroke-linecap="round"/>
<path d="M12.7266 6.67358L11.7944 6.67358" stroke="#8D99AE" stroke-width="0.870915" stroke-linecap="round"/>
<path d="M1.54102 6.67358L0.608803 6.67358" stroke="#8D99AE" stroke-width="0.870915" stroke-linecap="round"/>
<path d="M2.00781 2.0127L2.66699 2.67187" stroke="#8D99AE" stroke-width="0.870915" stroke-linecap="round"/>
<path d="M2.00781 11.5278L2.66699 10.8687" stroke="#8D99AE" stroke-width="0.870915" stroke-linecap="round"/>
<path d="M11.5215 2.0127L10.8623 2.67187" stroke="#8D99AE" stroke-width="0.870915" stroke-linecap="round"/>
<path d="M11.5215 11.5278L10.8623 10.8687" stroke="#8D99AE" stroke-width="0.870915" stroke-linecap="round"/>
</svg>
