<svg width="21" height="21" viewBox="0 0 21 21" fill="none" xmlns="http://www.w3.org/2000/svg">
<path d="M1.11318 0.204607C1.05433 0.141447 0.983353 0.090788 0.904497 0.055652C0.82564 0.0205161 0.740515 0.00162301 0.654198 0.000100047C0.567881 -0.00142291 0.482142 0.0144552 0.402095 0.0467875C0.322048 0.0791198 0.249333 0.127244 0.188288 0.188288C0.127244 0.249333 0.0791198 0.322048 0.0467875 0.402095C0.0144552 0.482142 -0.00142291 0.567881 0.000100047 0.654198C0.00162301 0.740515 0.0205161 0.82564 0.055652 0.904497C0.090788 0.983353 0.141447 1.05433 0.204607 1.11318L5.11089 6.02032H2.80175C2.43592 6.02032 2.07368 6.09238 1.7357 6.23237C1.39772 6.37237 1.09063 6.57756 0.831952 6.83624C0.573275 7.09492 0.368081 7.40201 0.228085 7.73999C0.0880902 8.07797 0.0160356 8.44021 0.0160356 8.80604V11.7992C0.0160356 12.538 0.30953 13.2466 0.831952 13.769C1.35438 14.2914 2.06293 14.5849 2.80175 14.5849H5.38346C5.76404 14.5849 6.13089 14.7306 6.40861 14.9903L10.6403 18.9555C11.3252 19.5975 12.4446 19.1115 12.4446 18.1738V13.354L19.4903 20.3998C19.6116 20.5168 19.774 20.5815 19.9426 20.58C20.1112 20.5784 20.2724 20.5107 20.3915 20.3915C20.5106 20.2723 20.5782 20.111 20.5795 19.9424C20.5809 19.7739 20.5161 19.6115 20.3989 19.4903L1.11318 0.204607ZM7.40632 4.67889L12.4446 9.71718V2.42804C12.4446 1.49032 11.3243 1.00518 10.6403 1.64632L7.40632 4.67889ZM15.592 12.8646L16.5666 13.8392C17.0991 12.7361 17.3748 11.5267 17.3732 10.3018C17.3758 8.54065 16.8051 6.82656 15.7472 5.41861C15.6965 5.35107 15.6331 5.29417 15.5604 5.25116C15.4878 5.20815 15.4074 5.17986 15.3238 5.16793C15.2402 5.15599 15.1551 5.16062 15.0733 5.18158C14.9916 5.20253 14.9147 5.23938 14.8472 5.29004C14.7796 5.34069 14.7227 5.40415 14.6797 5.47679C14.6367 5.54943 14.6084 5.62983 14.5965 5.71341C14.5846 5.79698 14.5892 5.88209 14.6101 5.96387C14.6311 6.04565 14.668 6.1225 14.7186 6.19004C15.6095 7.37549 16.09 8.81886 16.0875 10.3018C16.0885 11.1799 15.9203 12.0501 15.592 12.8646ZM17.9946 15.2672L18.9332 16.2066C20.0182 14.4281 20.5907 12.3843 20.5875 10.3009C20.5875 7.42861 19.5195 4.80318 17.7606 2.80346C17.7058 2.73717 17.6382 2.68256 17.5618 2.64288C17.4855 2.60319 17.4019 2.57923 17.3162 2.57243C17.2304 2.56562 17.1441 2.5761 17.0625 2.60325C16.9808 2.6304 16.9054 2.67367 16.8408 2.73048C16.7762 2.7873 16.7237 2.8565 16.6863 2.93401C16.6489 3.01151 16.6275 3.09572 16.6232 3.18166C16.619 3.2676 16.6321 3.35352 16.6616 3.43432C16.6912 3.51511 16.7367 3.58915 16.7955 3.65204C18.4144 5.48847 19.3058 7.85359 19.3018 10.3018C19.3047 12.0423 18.8542 13.7537 17.9946 15.2672Z" fill="#6966F0"/>
</svg>
